<svg xmlns="http://www.w3.org/2000/svg" viewBox="0 0 142.772 142.772"><g transform="translate(-2101 -245)"><path d="M2101,316.386a71.386,71.386,0,1,1,71.386,71.386A71.385,71.385,0,0,1,2101,316.386Zm71.386,42.688a42.688,42.688,0,1,0-42.688-42.688A42.688,42.688,0,0,0,2172.386,359.074Z" fill="#83d9ff"/><path d="M2357,675.333v-28.7a42.561,42.561,0,0,0,15.449-2.881l9.819,26.977A71.226,71.226,0,0,1,2357,675.333Z" transform="translate(-184.614 -287.561)" fill="#3fefef"/><path d="M2412.4,622.483a42.721,42.721,0,0,0,13.272-8.225l18.458,21.993a71.4,71.4,0,0,1-21.911,13.208Z" transform="translate(-224.567 -266.29)" fill="#1dd1d9"/><path d="M2460,582.581a42.889,42.889,0,0,0,9.35-12.249L2494.22,584.7a71.638,71.638,0,0,1-15.768,19.879Z" transform="translate(-258.89 -234.613)" fill="#17b5ba"/><path d="M2505.891,452.357l28.3-4.99a72,72,0,0,1,.9,24.778l-28.3-4.987a43.42,43.42,0,0,0,.27-4.835A42.791,42.791,0,0,0,2505.891,452.357Z" transform="translate(-291.987 -145.937)" fill="#9be058"/><path d="M2485.3,380.3l24.876-14.363a70.944,70.944,0,0,1,9.161,22.708l-28.3,4.99A42.489,42.489,0,0,0,2485.3,380.3Z" transform="translate(-277.138 -87.211)" fill="#c0ff66"/><path d="M2450.652,323.016l18.458-22a71.757,71.757,0,0,1,16.081,18.1l-24.876,14.363A42.977,42.977,0,0,0,2450.652,323.016Z" transform="translate(-252.151 -40.399)" fill="#ffdf46"/><path d="M2272.484,248.984A71.2,71.2,0,0,1,2296.051,245v28.7a42.646,42.646,0,0,0-13.752,2.263Z" transform="translate(-123.665)" fill="#fc3e81"/><path d="M2197.156,270.926a71.247,71.247,0,0,1,21-11.637h0l9.816,26.977a42.509,42.509,0,0,0-12.363,6.656Z" transform="translate(-69.343 -10.305)" fill="#f01054"/><path d="M2139.488,319.121a71.777,71.777,0,0,1,16.081-18.1l18.458,22a42.953,42.953,0,0,0-9.661,10.468Z" transform="translate(-27.756 -40.399)" fill="#7884ea"/><path d="M2103.41,523.327l28.3-4.987a42.452,42.452,0,0,0,4.347,14.5L2111.178,547.2A70.841,70.841,0,0,1,2103.41,523.327Z" transform="translate(-1.738 -197.119)" fill="#1685fb"/><path d="M2131.266,584.7l24.874-14.363a42.915,42.915,0,0,0,9.351,12.249l-18.458,21.993A71.67,71.67,0,0,1,2131.266,584.7Z" transform="translate(-21.826 -234.613)" fill="#43a3f9"/><path d="M2187.813,636.251l18.458-21.993a42.694,42.694,0,0,0,13.271,8.225l-9.82,26.977A71.4,71.4,0,0,1,2187.813,636.251Z" transform="translate(-62.605 -266.29)" fill="#64bdff"/><path d="M2106.637,388.642a70.944,70.944,0,0,1,9.161-22.708l24.876,14.363a42.483,42.483,0,0,0-5.741,13.335Z" transform="translate(-4.065 -87.211)" fill="#4a5be5"/><path d="M2493.531,532.838a42.48,42.48,0,0,0,4.346-14.5l28.3,4.987a70.841,70.841,0,0,1-7.768,23.874Z" transform="translate(-283.073 -197.119)" fill="#1cc939"/><path d="M2101,462.323a71.46,71.46,0,0,1,1.572-14.956l28.3,4.99a42.791,42.791,0,0,0-1.17,9.966,43.479,43.479,0,0,0,.27,4.835l-28.3,4.987A71.953,71.953,0,0,1,2101,462.323Z" transform="translate(0 -145.937)" fill="#364ec6"/><path d="M2406.316,286.266l9.819-26.977a71.217,71.217,0,0,1,21,11.638l-18.457,22A42.541,42.541,0,0,0,2406.316,286.266Z" transform="translate(-220.178 -10.305)" fill="#f9b200"/><path d="M2357,273.7V245a71.218,71.218,0,0,1,23.57,3.984l-9.819,26.977A42.636,42.636,0,0,0,2357,273.7Z" transform="translate(-184.614)" fill="#fd6096"/></g></svg>