<svg xmlns="http://www.w3.org/2000/svg" width="27.307" height="23.521" viewBox="0 0 27.307 23.521"><g transform="translate(0 -33.985)"><path d="M0,45.748a1.323,1.323,0,0,0,.947,1.2l10,3.024.368,6.9a.684.684,0,0,0,.462.6.627.627,0,0,0,.223.039.677.677,0,0,0,.512-.228l3.537-3.915,5.013,3.47a1.315,1.315,0,0,0,.757.239A1.345,1.345,0,0,0,23.133,56l4.16-21.2a.681.681,0,0,0-.925-.763L.8,44.44A1.344,1.344,0,0,0,0,45.748Zm12.587,9.407-.228-4.35,2.562,1.771Zm9.212.529-9.123-6.316L25.472,36.993Zm2.267-19.237L11.42,48.684,1.428,45.665Z" transform="translate(0)" fill="#fff"/></g></svg>