<svg xmlns="http://www.w3.org/2000/svg" viewBox="0 0 137.219 137.066"><g transform="translate(-1216 -264)"><path d="M1400.176,681.711h38.34V697.58h-38.34Z" transform="translate(-134.816 -305.762)" fill="#4a5be5"/><path d="M1346.024,378.171H1223.036a7.036,7.036,0,0,1-7.036-7.036v-100.1a7.036,7.036,0,0,1,7.036-7.036h122.988a7.036,7.036,0,0,1,7.036,7.036v100.1A7.036,7.036,0,0,1,1346.024,378.171Z" fill="#ffdf46"/><path d="M1684.721,271.04v100.1a7.036,7.036,0,0,1-7.036,7.036h-8.6a7.036,7.036,0,0,0,7.036-7.036V271.04A7.036,7.036,0,0,0,1669.09,264h8.6A7.036,7.036,0,0,1,1684.721,271.04Z" transform="translate(-331.659 -0.003)" fill="#f9b200"/><path d="M1353.061,626.754H1216v9.915a7.036,7.036,0,0,0,7.036,7.036h122.988a7.036,7.036,0,0,0,7.036-7.036Z" transform="translate(0 -265.534)" fill="#7884ea"/><path d="M1353.635,288H1216.57V271.036a7.036,7.036,0,0,1,7.035-7.036H1346.6a7.036,7.036,0,0,1,7.036,7.036Z" transform="translate(-0.417)" fill="#7884ea"/><path d="M1684.875,271.038v16.969h-8.752V271.038a7.036,7.036,0,0,0-7.037-7.034h8.753A7.036,7.036,0,0,1,1684.875,271.038Z" transform="translate(-331.657 -0.003)" fill="#4a5be5"/><path d="M1413.24,744.465h-63.19a1.379,1.379,0,0,1-1.379-1.379v-4.469a5.488,5.488,0,0,1,5.488-5.488h54.972a5.488,5.488,0,0,1,5.488,5.488v4.469A1.379,1.379,0,0,1,1413.24,744.465Z" transform="translate(-97.115 -343.4)" fill="#7884ea"/><path d="M1562.691,738.616v4.471a1.38,1.38,0,0,1-1.38,1.379h-4.868v-5.85a5.488,5.488,0,0,0-5.486-5.487h6.248A5.487,5.487,0,0,1,1562.691,738.616Z" transform="translate(-245.187 -343.4)" fill="#4a5be5"/><g transform="translate(1223.176 296.988)"><path d="M1251.272,404.083a2.005,2.005,0,0,1-1.422-.588l-6.485-6.487a2.01,2.01,0,0,1,0-2.842l6.485-6.485a2.01,2.01,0,1,1,2.843,2.842l-5.065,5.065,5.065,5.065a2.009,2.009,0,0,1-1.421,3.431Z" transform="translate(-1242.776 -387.091)" fill="#4a5be5"/><path d="M1326.845,404.083a2.009,2.009,0,0,1-1.422-3.431l5.065-5.065-5.065-5.065a2.01,2.01,0,1,1,2.844-2.842l6.485,6.485a2.009,2.009,0,0,1,0,2.842l-6.485,6.487A2.005,2.005,0,0,1,1326.845,404.083Z" transform="translate(-1302.842 -387.091)" fill="#4a5be5"/><path d="M1289.231,404.082a2.012,2.012,0,0,1-1.871-2.746l5.1-12.972a2.01,2.01,0,1,1,3.742,1.471l-5.1,12.971A2.01,2.01,0,0,1,1289.231,404.082Z" transform="translate(-1275.309 -387.088)" fill="#4a5be5"/><path d="M1263.091,484.8h-13.936a2.01,2.01,0,0,1,0-4.02h13.936a2.01,2.01,0,0,1,0,4.02Z" transform="translate(-1245.974 -455.671)" fill="#4a5be5"/><path d="M1354,484.8h-24.5a2.01,2.01,0,0,1,0-4.02H1354a2.01,2.01,0,1,1,0,4.02Z" transform="translate(-1304.787 -455.671)" fill="#4a5be5"/><path d="M1255.092,517.356h-5.937a2.01,2.01,0,0,1,0-4.02h5.937a2.01,2.01,0,0,1,0,4.02Z" transform="translate(-1245.974 -479.501)" fill="#4a5be5"/><path d="M1396.3,517.356h-3.616a2.01,2.01,0,0,1,0-4.02h3.616a2.01,2.01,0,0,1,0,4.02Z" transform="translate(-1351.038 -479.501)" fill="#4a5be5"/><path d="M1316.151,517.356h-17.757a2.01,2.01,0,1,1,0-4.02h17.757a2.01,2.01,0,0,1,0,4.02Z" transform="translate(-1282.016 -479.501)" fill="#4a5be5"/><path d="M1437.427,517.356h-6.772a2.01,2.01,0,1,1,0-4.02h6.772a2.01,2.01,0,1,1,0,4.02Z" transform="translate(-1378.831 -479.501)" fill="#4a5be5"/><path d="M1388.04,413.782H1380.9a2.01,2.01,0,0,1,0-4.02h7.143a2.01,2.01,0,0,1,0,4.02Z" transform="translate(-1342.408 -403.685)" fill="#4a5be5"/><path d="M1480.979,413.782H1437.4a2.01,2.01,0,1,1,0-4.02h43.582a2.01,2.01,0,1,1,0,4.02Z" transform="translate(-1383.766 -403.685)" fill="#4a5be5"/><path d="M1527.1,447.747h-17.653a2.01,2.01,0,0,1,0-4.02H1527.1a2.01,2.01,0,0,1,0,4.02Z" transform="translate(-1436.504 -428.547)" fill="#4a5be5"/><path d="M1468.165,447.747H1462.1a2.01,2.01,0,0,1,0-4.02h6.069a2.01,2.01,0,0,1,0,4.02Z" transform="translate(-1401.846 -428.547)" fill="#4a5be5"/><path d="M1395.761,447.747h-14.868a2.01,2.01,0,1,1,0-4.02h14.868a2.01,2.01,0,0,1,0,4.02Z" transform="translate(-1342.406 -428.547)" fill="#4a5be5"/><path d="M1326.684,549.641h-13.936a2.01,2.01,0,0,1,0-4.02h13.936a2.01,2.01,0,0,1,0,4.02Z" transform="translate(-1292.524 -503.133)" fill="#4a5be5"/><path d="M1259.863,549.641h-10.708a2.01,2.01,0,0,1,0-4.02h10.708a2.01,2.01,0,1,1,0,4.02Z" transform="translate(-1245.974 -503.133)" fill="#4a5be5"/><path d="M1409.289,549.641h-18.2a2.01,2.01,0,1,1,0-4.02h18.2a2.01,2.01,0,0,1,0,4.02Z" transform="translate(-1349.865 -503.133)" fill="#4a5be5"/></g><path d="M1258.279,297.631a4,4,0,1,1-4-4A4,4,0,0,1,1258.279,297.631Z" transform="translate(-25.088 -21.688)" fill="#f01054"/><path d="M1315.953,297.631a4,4,0,1,1-4-4A4,4,0,0,1,1315.953,297.631Z" transform="translate(-67.306 -21.688)" fill="#ffdf46"/><path d="M1373.629,297.631a4,4,0,1,1-4-4A4,4,0,0,1,1373.629,297.631Z" transform="translate(-109.525 -21.688)" fill="#1cc939"/></g></svg>