<svg xmlns="http://www.w3.org/2000/svg" viewBox="0 0 117.76 62.169"><g transform="translate(-101.489 -827.048)"><path d="M398.383,438.554q0,12.992-12.841,13.034-12.814,0-12.819-13.034V420.823l8.93-.493v18.224c0,2.8,1.293,4.19,3.889,4.19s3.91-1.389,3.91-4.19v-8.338h8.93v8.338Z" transform="translate(-186.077 437.493)" fill="#1a1818"/><path d="M287.307,424.646v16.368q0,12.975-12.474,13H261.647V426.062l8.93-.493v19.646h3.911c2.585,0,3.889-1.4,3.889-4.2V425.139l8.93-.493Z" transform="translate(-113.652 434.679)" fill="#1a1818"/><path d="M202.033,432.677a22.087,22.087,0,0,1-5.613.554h-1.455v26.543h-8.93V433.559l16-.882Z" transform="translate(-64.352 429.442)" fill="#1a1818"/><path d="M361.295,361.692v-16.8q0-13.008,12.819-13,12.846,0,12.84,13v8.338h-8.93v-8.338q0-4.169-3.878-4.19h-.064c-2.564,0-3.857,1.389-3.857,4.19V361.2l-8.93.493Z" transform="translate(-178.625 495.158)" fill="#4a5be5"/><path d="M267.619,334.707h13.756q11.909.032,11.9,13.035v16.169l-8.93.493V347.741c0-2.822-1.3-4.233-3.889-4.233h-3.911v21.326l-8.93.493v-30.62Z" transform="translate(-117.546 493.321)" fill="#4a5be5"/><path d="M177.008,334.707h13q11.892.032,11.893,13.035v9.307q0,5.534-2.841,8.8l-22.054,1.217V334.707Zm8.93,8.8V361.25h2.047a8.457,8.457,0,0,0,2.564-.259,3.822,3.822,0,0,0,2.424-3.943v-9.307q0-4.234-3.878-4.233Z" transform="translate(-58.466 493.321)" fill="#4a5be5"/><path d="M128,417.109l117.576-6.724.184,3.457-117.576,6.724L128,417.109Z" transform="translate(-26.511 443.978)" fill="#1a1818" fill-rule="evenodd"/></g></svg>