<svg xmlns="http://www.w3.org/2000/svg" viewBox="0 0 142.001 142.001"><g transform="translate(-278.158 -260.856)"><path d="M317.148,450.074c-8.751-1.19-18.958,2.593-26,9.641l-11.767,11.767a4.161,4.161,0,0,0,4.018,6.961c7.467-2,17.349-2.668,19.779-.813Z" transform="translate(0 -136.583)" fill="#7884ea"/><path d="M526.459,632.493l-27.6,13.313c1.537,2.094,1.416,8.718-.376,20.848a4.16,4.16,0,0,0,7.055,3.55l11.767-11.767A32.6,32.6,0,0,0,526.459,632.493Z" transform="translate(-159.189 -268.565)" fill="#4a5be5"/><path d="M389.234,577.994c-9.707,5.236-10.942,5.531-12.413,6.531a4.113,4.113,0,0,1-5.177-.588l-29.417-29.417a4.181,4.181,0,0,1-.588-5.177c1-1.471,1.118-2.413,6.413-12.532l11.65-.118,29.417,29.417Z" transform="translate(-45.411 -199.334)" fill="#4a5be5"/><path d="M407.611,390.666l-41.184-41.184q30.623-57.8,73.425-72.012l20,19.885,19.532,19.533C469.976,345.246,445.971,369.956,407.611,390.666Z" transform="translate(-63.788 -12.006)" fill="#ffdf46"/><path d="M461.417,442.479l-20.533-20.533,72.778-72.777L533.195,368.7C523.782,397.06,499.778,421.769,461.417,442.479Z" transform="translate(-117.594 -63.82)" fill="#f9b200"/><path d="M564.073,379.088l-.177-.177a20.8,20.8,0,0,0-29.417,29.416l.177.176a20.8,20.8,0,0,0,29.417-29.416Z" transform="translate(-180.831 -80.913)" fill="#9be058"/><path d="M580.222,424.654a20.865,20.865,0,0,1-29.24.176L580.4,395.415A20.864,20.864,0,0,1,580.222,424.654Z" transform="translate(-197.157 -97.24)" fill="#1cc939"/><path d="M670.7,304.882c-9-.647-18.649-4.883-26.475-12.59l-.177-.177c-7.884-7.884-12.3-17.592-12.885-26.652a81.638,81.638,0,0,1,8.237-2.353,95.24,95.24,0,0,1,31.535-1.647,3.77,3.77,0,0,1,2.647,1.47,3.487,3.487,0,0,1,1.059,2.236,93.424,93.424,0,0,1-1.706,31.475C672.294,299.41,671.588,302.117,670.7,304.882Z" transform="translate(-255.105 0)" fill="#7884ea"/><path d="M704.738,310.293c-9-.647-18.649-4.883-26.475-12.59l29.358-29.358a3.492,3.492,0,0,1,1.059,2.236,93.449,93.449,0,0,1-1.706,31.475C706.327,304.822,705.621,307.529,704.738,310.293Z" transform="translate(-289.138 -5.412)" fill="#4a5be5"/><path d="M383.3,542.775a3.922,3.922,0,0,0-1.176-2.589,3.848,3.848,0,0,0-3-1.588c-15.3-.118-18.71,5.295-19.592,6.178-25.474,25.474-25.769,38.007-25.769,39.3a4.3,4.3,0,0,0,1.235,2.883.308.308,0,0,0,.236.118,3.573,3.573,0,0,0,2.293,1c2.118.235,14.061-.059,39.654-25.651C382.945,556.659,383.356,551.305,383.3,542.775Z" transform="translate(-40.18 -200.71)" fill="#7884ea"/><path d="M387.13,546.918c.06,8.531-.352,13.884-6.119,19.65-25.593,25.593-37.536,25.886-39.653,25.651a3.573,3.573,0,0,1-2.294-1l46.891-46.891A3.926,3.926,0,0,1,387.13,546.918Z" transform="translate(-44.014 -204.853)" fill="#4a5be5"/></g></svg>